<svg xmlns="http://www.w3.org/2000/svg" viewBox="0 0 1200 630" width="1200" height="630">
  <defs>
    <linearGradient id="bg" x1="0" y1="0" x2="1" y2="1">
      <stop offset="0%" stop-color="#0f172a" />
      <stop offset="100%" stop-color="#1e293b" />
    </linearGradient>
    <linearGradient id="accent" x1="0" y1="0" x2="1" y2="0">
      <stop offset="0%" stop-color="#60a5fa" />
      <stop offset="100%" stop-color="#a78bfa" />
    </linearGradient>
  </defs>

  <rect width="1200" height="630" fill="url(#bg)" />

  <g opacity="0.06" stroke="#60a5fa" stroke-width="1" fill="none">
    <line x1="0" y1="100" x2="1200" y2="100" />
    <line x1="0" y1="200" x2="1200" y2="200" />
    <line x1="0" y1="300" x2="1200" y2="300" />
    <line x1="0" y1="400" x2="1200" y2="400" />
    <line x1="0" y1="500" x2="1200" y2="500" />
  </g>

  <g transform="translate(80,90)">
    <rect width="116" height="36" rx="18" fill="url(#accent)" opacity="0.18" />
    <rect x="1" y="1" width="114" height="34" rx="17" fill="none" stroke="url(#accent)" stroke-width="1.4" />
    <text x="58" y="24" font-family="-apple-system, Inter, Helvetica, Arial, sans-serif" font-size="15" font-weight="700" fill="#bfdbfe" text-anchor="middle" letter-spacing="2">
      NOMAD · 5 STATES
    </text>
  </g>

  <text x="80" y="240" font-family="-apple-system, Inter, Helvetica, Arial, sans-serif" font-size="74" font-weight="800" fill="#f8fafc">
    US Tax-Free Address
  </text>
  <text x="80" y="324" font-family="-apple-system, Inter, Helvetica, Arial, sans-serif" font-size="74" font-weight="800" fill="url(#accent)">
    Generator
  </text>

  <text x="80" y="396" font-family="-apple-system, Inter, Helvetica, Arial, sans-serif" font-size="26" font-weight="500" fill="#94a3b8">
    Realistic test addresses for the 5 US states with no statewide sales tax.
  </text>

  <g transform="translate(80,470)" font-family="-apple-system, Inter, Helvetica, Arial, sans-serif" font-size="22" font-weight="600">
    <g>
      <rect width="200" height="56" rx="10" fill="#1e293b" stroke="#334155" stroke-width="1.5" />
      <text x="100" y="36" fill="#e2e8f0" text-anchor="middle">Delaware</text>
    </g>
    <g transform="translate(216,0)">
      <rect width="200" height="56" rx="10" fill="#1e293b" stroke="#334155" stroke-width="1.5" />
      <text x="100" y="36" fill="#e2e8f0" text-anchor="middle">Montana</text>
    </g>
    <g transform="translate(432,0)">
      <rect width="260" height="56" rx="10" fill="#1e293b" stroke="#334155" stroke-width="1.5" />
      <text x="130" y="36" fill="#e2e8f0" text-anchor="middle">New Hampshire</text>
    </g>
    <g transform="translate(708,0)">
      <rect width="180" height="56" rx="10" fill="#1e293b" stroke="#334155" stroke-width="1.5" />
      <text x="90" y="36" fill="#e2e8f0" text-anchor="middle">Oregon</text>
    </g>
    <g transform="translate(904,0)">
      <rect width="170" height="56" rx="10" fill="#1e293b" stroke="#334155" stroke-width="1.5" />
      <text x="85" y="36" fill="#e2e8f0" text-anchor="middle">Alaska</text>
    </g>
  </g>

  <text x="80" y="586" font-family="-apple-system, Inter, Helvetica, Arial, sans-serif" font-size="22" font-weight="600" fill="#64748b">
    usaddregen.com
  </text>
  <text x="1120" y="586" font-family="-apple-system, Inter, Helvetica, Arial, sans-serif" font-size="22" font-weight="500" fill="#475569" text-anchor="end">
    QA · forms · seed data
  </text>
</svg>
