<?xml version="1.0" standalone="no"?>
<!DOCTYPE svg PUBLIC "-//W3C//DTD SVG 20010904//EN"
 "http://www.w3.org/TR/2001/REC-SVG-20010904/DTD/svg10.dtd">
<svg version="1.0" xmlns="http://www.w3.org/2000/svg"
 width="1200.000000pt" height="630.000000pt" viewBox="0 0 1200.000000 630.000000"
 preserveAspectRatio="xMidYMid meet">

<g transform="translate(0.000000,630.000000) scale(0.100000,-0.100000)"
fill="#000000" stroke="none">
<path d="M0 3150 l0 -3150 6000 0 6000 0 0 3150 0 3150 -6000 0 -6000 0 0
-3150z m1656 1285 c70 -20 124 -82 124 -139 0 -24 -3 -26 -49 -26 -45 0 -50 2
-61 30 -16 39 -37 50 -97 50 -61 0 -93 -21 -93 -61 0 -35 23 -48 136 -74 145
-33 191 -77 182 -172 -6 -64 -35 -105 -94 -133 -63 -31 -201 -26 -258 9 -46
29 -76 75 -76 119 0 32 0 32 50 32 45 0 50 -2 56 -25 10 -41 50 -65 108 -65
70 0 100 17 104 59 4 44 -13 55 -121 80 -48 12 -101 27 -116 36 -69 35 -96
114 -63 187 24 54 49 76 104 93 57 18 104 18 164 0z m-684 -206 l3 -201 28
-24 c38 -33 96 -33 134 0 l28 24 3 201 3 201 61 0 61 0 -5 -199 c-4 -185 -7
-202 -29 -247 -34 -68 -86 -94 -190 -94 -99 0 -154 26 -186 90 -22 42 -23 56
-23 247 l0 203 54 0 55 0 3 -201z m1508 156 l0 -45 -80 0 -80 0 0 -220 0 -220
-55 0 -55 0 -1 198 c-1 108 -2 206 -3 217 -1 18 -9 20 -83 23 l-83 3 0 44 0
45 220 0 220 0 0 -45z m1460 0 l0 -45 -135 0 -135 0 0 -60 0 -60 115 0 115 0
0 -50 0 -50 -115 0 -115 0 0 -110 0 -110 -55 0 -55 0 0 265 0 265 190 0 190 0
0 -45z m1640 42 c0 -2 41 -117 90 -256 50 -139 90 -257 90 -262 0 -5 -26 -9
-58 -9 l-58 0 -18 55 -17 55 -98 0 -97 0 -18 -55 -17 -55 -59 0 -59 0 48 138
c47 132 126 354 136 380 3 8 27 12 70 12 36 0 65 -1 65 -3z m600 -262 l0 -265
-50 0 c-45 0 -50 2 -50 22 l0 21 -25 -23 c-18 -17 -40 -25 -80 -28 -47 -4 -61
-1 -94 21 -56 37 -76 85 -76 182 0 67 4 87 25 123 32 57 74 82 138 82 40 0 57
-6 81 -26 l31 -26 0 91 0 91 50 0 50 0 0 -265z m460 0 l0 -265 -55 0 c-49 0
-55 2 -55 21 0 20 -1 20 -32 -6 -29 -24 -38 -27 -91 -23 -55 4 -63 8 -98 45
-58 63 -73 142 -44 239 9 31 28 63 50 84 30 29 43 34 93 38 52 4 61 1 90 -23
l32 -27 0 91 0 91 55 0 55 0 0 -265z m1040 120 c36 -19 59 -47 66 -83 l7 -32
-50 0 c-43 0 -51 3 -61 24 -20 44 -122 41 -122 -3 0 -16 12 -24 58 -36 150
-42 182 -66 182 -140 0 -82 -61 -125 -177 -125 -101 0 -166 41 -175 110 -3 24
0 25 50 28 36 2 52 -1 52 -9 0 -29 33 -49 80 -49 46 0 70 13 70 37 0 16 -19
24 -119 53 -93 27 -121 53 -121 113 0 47 23 87 63 109 50 27 146 28 197 3z
m413 -3 c39 -16 67 -54 67 -92 0 -17 -6 -20 -48 -20 -42 0 -50 4 -60 24 -16
36 -106 43 -119 10 -9 -24 15 -41 84 -58 118 -30 156 -61 156 -127 0 -49 -25
-87 -74 -111 -42 -22 -155 -24 -203 -4 -42 18 -76 61 -76 97 0 28 2 29 48 29
42 0 49 -3 64 -30 15 -27 22 -30 66 -30 48 0 72 12 72 37 0 16 -21 25 -119 53
-93 27 -121 53 -121 113 0 111 131 165 263 109z m-5363 2 c62 -25 70 -49 70
-213 0 -82 4 -142 10 -146 24 -15 6 -25 -46 -25 -47 0 -57 3 -61 20 -5 19 -6
19 -35 -2 -66 -47 -171 -31 -203 32 -45 88 15 171 133 185 56 7 102 27 102 45
0 19 -33 40 -65 40 -32 0 -65 -21 -65 -41 0 -5 -22 -9 -50 -9 -45 0 -50 2 -50
23 0 30 25 64 64 88 39 24 139 26 196 3z m1500 -33 l0 -48 -41 -6 c-73 -10
-82 -28 -87 -172 l-4 -125 -49 0 -49 0 0 195 0 195 50 0 c48 0 50 -1 50 -27 1
-28 1 -28 18 -7 24 29 52 43 85 44 26 0 27 -2 27 -49z m326 22 c40 -29 66 -84
72 -150 l4 -53 -137 0 -137 0 6 -27 c16 -67 97 -95 140 -48 18 20 33 25 70 25
39 0 46 -3 46 -20 0 -29 -56 -87 -97 -101 -19 -6 -61 -9 -93 -7 -112 8 -170
77 -170 203 0 89 26 145 83 180 36 22 51 26 112 23 53 -2 78 -9 101 -25z m391
10 c51 -24 86 -82 91 -154 l4 -59 -136 0 c-75 0 -136 -2 -136 -5 0 -3 6 -21
14 -40 25 -59 88 -74 132 -30 19 19 35 25 69 25 24 0 46 -4 49 -9 8 -12 -33
-70 -66 -94 -30 -22 -108 -33 -163 -23 -48 9 -112 68 -125 114 -23 83 -6 186
38 236 50 57 155 75 229 39z m2013 -32 l0 -48 -41 -6 c-74 -10 -84 -29 -87
-172 l-4 -125 -49 0 -49 0 0 195 0 195 50 0 c47 0 50 -2 50 -26 l0 -26 31 31
c22 23 40 31 65 31 l34 0 0 -49z m299 34 c60 -31 101 -105 101 -182 l0 -33
-135 0 c-130 0 -135 -1 -135 -21 0 -29 53 -79 83 -79 14 0 39 11 55 25 22 19
41 25 76 25 55 0 60 -15 22 -65 -74 -96 -254 -84 -313 21 -30 52 -32 169 -4
230 17 38 54 73 91 87 31 11 132 7 159 -8z m-4244 -45 c16 -27 32 -50 36 -50
3 0 18 23 33 50 l27 50 61 0 60 0 -18 -27 c-9 -16 -37 -58 -62 -95 l-44 -66
59 -89 c33 -48 63 -94 67 -100 5 -10 -8 -13 -57 -13 l-65 0 -31 55 c-17 30
-33 55 -35 55 -3 0 -19 -25 -36 -55 l-31 -55 -65 0 -64 0 65 94 c36 52 65 99
65 105 0 7 -27 52 -60 101 l-61 90 64 0 63 0 29 -50z m465 -130 l0 -50 -105 0
-105 0 0 50 0 50 105 0 105 0 0 -50z m-2282 -525 c20 -9 47 -26 60 -38 24 -22
62 -88 62 -107 0 -5 -23 -10 -53 -10 -44 0 -54 3 -62 22 -18 39 -62 63 -116
62 -95 -1 -144 -68 -144 -194 0 -57 5 -83 20 -109 56 -95 210 -93 251 4 8 19
14 37 14 40 0 3 -27 5 -60 5 l-60 0 0 40 0 40 105 0 105 0 0 -140 0 -140 -35
0 c-32 0 -35 2 -35 30 0 34 -11 38 -31 13 -23 -26 -91 -53 -139 -53 -74 0
-119 18 -169 68 -56 56 -76 115 -75 217 3 165 100 265 257 265 39 0 83 -7 105
-15z m2312 -80 l0 -55 35 0 c33 0 35 -2 35 -35 0 -33 -2 -35 -35 -35 l-36 0 3
-122 3 -123 33 -3 c29 -3 32 -6 32 -38 l0 -34 -59 0 c-96 0 -100 7 -103 175
l-3 140 -27 3 c-25 3 -28 8 -28 38 0 31 2 34 30 34 30 0 30 1 30 55 l0 55 45
0 45 0 0 -55z m-1840 -67 c56 -29 90 -89 90 -160 l0 -48 -135 0 c-74 0 -135
-2 -135 -5 0 -20 32 -75 48 -84 32 -17 80 -13 102 9 15 15 33 20 70 20 l51 0
-16 -29 c-8 -17 -32 -43 -52 -58 -32 -25 -45 -28 -107 -28 -129 0 -186 61
-186 198 0 58 5 84 23 118 28 54 89 89 157 89 28 0 63 -9 90 -22z m457 5 c54
-25 63 -58 63 -233 l0 -150 -50 0 -50 0 0 140 c0 127 -2 142 -20 160 -28 28
-75 26 -105 -5 -24 -23 -25 -29 -25 -160 l0 -135 -50 0 -50 0 0 195 0 195 45
0 c41 0 45 -2 45 -25 0 -14 5 -25 10 -25 6 0 10 5 10 10 0 19 65 50 103 50 22
0 55 -8 74 -17z m397 3 c59 -24 105 -109 106 -193 0 -23 -2 -23 -135 -23 -148
0 -150 -1 -120 -59 23 -46 83 -56 128 -21 24 19 117 30 117 13 0 -21 -51 -76
-86 -93 -73 -36 -178 -17 -230 41 -63 71 -58 225 9 298 46 49 141 66 211 37z
m396 -36 l0 -50 -34 0 c-19 0 -44 -9 -57 -19 -23 -18 -24 -27 -27 -150 l-4
-131 -49 0 -49 0 0 195 0 195 45 0 c43 0 45 -1 45 -30 0 -16 2 -30 4 -30 2 0
20 16 39 35 22 22 45 35 61 35 25 0 26 -3 26 -50z m302 38 c70 -21 78 -41 78
-197 0 -99 4 -144 14 -163 l15 -28 -54 0 c-50 0 -55 2 -61 25 l-6 25 -29 -25
c-39 -33 -93 -42 -144 -24 -77 27 -97 129 -36 189 20 21 44 30 96 39 92 16
102 19 109 37 21 54 -83 79 -122 29 -16 -20 -29 -25 -62 -25 -42 0 -42 0 -36
32 16 82 123 121 238 86z m720 -20 c46 -35 71 -89 76 -163 7 -122 -74 -215
-188 -215 -71 0 -115 17 -153 59 -85 94 -62 275 41 331 29 16 53 20 113 18 64
-3 81 -7 111 -30z m378 -18 l0 -50 -35 0 c-25 0 -44 -8 -60 -25 -24 -23 -25
-30 -25 -150 l0 -125 -50 0 -50 0 0 195 0 195 45 0 c44 0 45 -1 45 -31 l0 -31
40 36 c24 21 50 36 65 36 23 0 25 -3 25 -50z m-640 -885 c0 -3 -6 -14 -12 -25
-11 -17 -10 -22 2 -30 10 -6 11 -10 3 -10 -9 0 -13 -19 -13 -60 0 -33 -4 -60
-10 -60 -6 0 -10 27 -10 60 0 41 -4 60 -12 61 -10 0 -10 2 0 6 6 2 12 12 12
22 0 9 5 22 12 29 12 12 28 16 28 7z m1274 -5 c18 -6 26 -17 25 -32 l0 -23
-16 23 c-18 26 -64 30 -83 7 -18 -21 -2 -36 58 -55 39 -12 48 -20 50 -41 2
-15 -4 -34 -13 -43 -21 -21 -89 -21 -109 0 -18 17 -21 44 -6 44 6 0 10 -7 10
-15 0 -24 45 -40 75 -27 44 20 32 49 -27 67 -71 21 -86 47 -48 85 22 22 46 25
84 10z m-3993 -24 c8 -17 8 -29 0 -43 -7 -14 -7 -31 -1 -54 12 -41 13 -59 2
-59 -5 0 -13 17 -18 38 -8 35 -12 37 -51 40 l-43 3 0 -40 c0 -23 -4 -41 -10
-41 -6 0 -10 37 -10 90 l0 90 60 0 c54 0 62 -3 71 -24z m346 -113 c-2 -27 -3
-5 -3 47 0 52 1 74 3 48 2 -27 2 -69 0 -95z m63 127 c0 -5 -4 -10 -10 -10 -5
0 -10 5 -10 10 0 6 5 10 10 10 6 0 10 -4 10 -10z m260 0 c0 -5 -4 -10 -10 -10
-5 0 -10 5 -10 10 0 6 5 10 10 10 6 0 10 -4 10 -10z m990 -80 c0 -53 -4 -90
-10 -90 -11 0 -12 5 -14 64 -2 69 -67 77 -74 9 -4 -38 22 -66 50 -57 14 4 18
2 14 -5 -12 -19 -54 -12 -70 11 -41 58 1 129 62 107 20 -8 22 -5 22 21 0 17 5
30 10 30 6 0 10 -37 10 -90z m140 2 l0 -89 -44 -1 c-57 -3 -71 15 -67 85 1 32
43 58 70 43 19 -10 21 -8 21 20 0 16 5 30 10 30 6 0 10 -36 10 -88z m1340 58
c0 -28 2 -30 21 -19 16 8 28 8 45 0 21 -9 24 -17 24 -71 0 -77 -18 -79 -22 -3
-2 48 -6 58 -22 61 -28 6 -46 -25 -46 -75 0 -24 -4 -43 -10 -43 -6 0 -10 37
-10 90 0 53 4 90 10 90 6 0 10 -14 10 -30z m450 20 c0 -5 -17 -10 -39 -10 -33
0 -39 -3 -43 -25 -5 -23 -2 -25 34 -25 32 0 40 -5 50 -26 18 -40 -7 -78 -53
-82 -23 -2 -40 2 -49 13 -19 23 -4 31 19 11 23 -21 57 -14 66 13 13 42 -26 72
-65 51 -18 -10 -20 -8 -20 17 0 62 9 73 56 73 24 0 44 -4 44 -10z m140 -58 c0
-75 10 -92 52 -92 36 0 48 24 48 99 0 34 4 61 10 61 6 0 10 -29 10 -68 0 -85
-16 -112 -67 -112 -59 0 -73 21 -73 107 0 42 4 73 10 73 6 0 10 -29 10 -68z
m1380 58 c0 -5 -4 -10 -10 -10 -5 0 -10 5 -10 10 0 6 5 10 10 10 6 0 10 -4 10
-10z m130 -20 c0 -28 2 -30 20 -20 28 15 56 4 64 -23 9 -36 7 -107 -4 -107 -5
0 -10 20 -10 44 0 56 -8 76 -29 76 -29 0 -41 -22 -41 -72 0 -26 -4 -48 -10
-48 -6 0 -10 37 -10 90 0 53 4 90 10 90 6 0 10 -14 10 -30z m1330 20 c0 -5 -4
-10 -10 -10 -5 0 -10 5 -10 10 0 6 5 10 10 10 6 0 10 -4 10 -10z m140 -82 c0
-56 -4 -88 -9 -79 -6 9 -11 10 -15 2 -10 -16 -52 -13 -70 5 -35 35 -2 137 40
120 8 -3 21 -9 29 -12 11 -5 15 1 15 25 0 17 2 31 5 31 3 0 5 -42 5 -92z m550
2 c0 -53 -4 -90 -10 -90 -6 0 -10 37 -10 90 0 53 4 90 10 90 6 0 10 -37 10
-90z m-6638 40 c8 0 6 -5 -4 -11 -23 -13 -24 -76 -1 -101 15 -17 15 -18 -5
-18 -20 0 -22 5 -22 60 0 33 -4 60 -9 60 -5 0 -4 11 2 24 11 23 12 24 19 5 4
-10 13 -19 20 -19z m318 20 c0 -11 6 -20 13 -21 10 0 10 -2 0 -6 -8 -3 -13
-24 -13 -53 0 -30 5 -50 13 -53 6 -2 9 -8 5 -12 -4 -4 -14 -5 -23 -2 -11 5
-15 21 -15 62 0 30 -4 55 -9 55 -5 0 -4 11 2 25 14 30 27 32 27 5z m358 -17
c14 -12 14 -13 -1 -13 -25 0 -24 -87 1 -106 16 -12 15 -13 -5 -14 -21 0 -23 5
-23 54 0 30 -4 57 -9 60 -5 4 -4 16 2 31 7 13 14 19 16 12 2 -7 10 -18 19 -24z
m1782 17 c0 -11 6 -20 13 -21 10 0 10 -2 0 -6 -16 -6 -18 -103 -3 -103 6 0 10
-4 10 -10 0 -5 -9 -10 -20 -10 -18 0 -20 7 -20 60 0 33 -4 60 -9 60 -5 0 -4
11 2 25 14 30 27 32 27 5z m1210 0 c0 -11 6 -20 13 -21 10 0 10 -2 0 -6 -8 -3
-13 -24 -13 -53 0 -30 5 -50 13 -53 6 -2 9 -8 5 -12 -4 -4 -14 -5 -23 -2 -11
5 -15 21 -15 62 0 37 -4 55 -12 56 -10 0 -10 2 0 6 6 2 12 13 12 24 0 10 5 19
10 19 6 0 10 -9 10 -20z m220 0 c0 -11 6 -20 13 -21 10 0 10 -2 0 -6 -8 -3
-13 -24 -13 -53 0 -30 5 -50 13 -53 6 -2 9 -8 5 -12 -4 -4 -14 -5 -23 -2 -11
5 -15 21 -15 62 0 30 -4 55 -9 55 -5 0 -4 11 2 25 14 30 27 32 27 5z m660 0
c0 -11 6 -20 13 -21 10 0 10 -2 0 -6 -8 -3 -13 -24 -13 -53 0 -30 5 -50 13
-53 6 -2 9 -8 5 -12 -4 -4 -14 -5 -23 -2 -11 5 -15 21 -15 62 0 37 -4 55 -12
56 -10 0 -10 2 0 6 6 2 12 13 12 24 0 10 5 19 10 19 6 0 10 -9 10 -20z m787
-5 c6 -14 7 -25 2 -25 -5 0 -9 -22 -9 -50 0 -27 5 -50 10 -50 6 0 10 -4 10
-10 0 -16 -27 -11 -34 6 -3 9 -6 36 -6 60 0 28 -5 44 -12 45 -10 0 -10 2 0 6
6 2 12 13 12 24 0 26 13 24 27 -6z m213 5 c0 -11 6 -20 13 -21 10 0 10 -2 0
-6 -8 -3 -13 -24 -13 -53 0 -30 5 -50 13 -53 6 -2 9 -8 5 -12 -4 -4 -14 -5
-23 -2 -11 5 -15 21 -15 62 0 37 -4 55 -12 56 -10 0 -10 2 0 6 6 2 12 13 12
24 0 10 5 19 10 19 6 0 10 -9 10 -20z m1507 -5 c6 -14 7 -25 2 -25 -14 0 -11
-98 4 -103 6 -2 9 -8 5 -12 -4 -4 -14 -5 -23 -2 -11 5 -15 21 -15 62 0 37 -4
55 -12 56 -10 0 -10 2 0 6 6 2 12 13 12 24 0 26 13 24 27 -6z m-7529 -33 c6
-9 12 -24 12 -34 0 -15 -8 -18 -50 -18 -52 0 -60 -8 -34 -34 19 -20 24 -20 52
0 23 16 30 6 10 -14 -17 -17 -58 -15 -80 5 -33 29 -19 102 22 116 21 7 53 -2
68 -21z m123 18 c15 -8 19 -21 19 -58 0 -27 5 -53 12 -60 9 -9 8 -12 -5 -12
-9 0 -17 4 -17 9 0 5 -13 5 -29 -2 -40 -15 -63 -3 -59 30 3 27 11 32 75 49 7
2 10 10 7 19 -7 17 -49 21 -59 5 -10 -15 -25 -12 -19 4 5 13 20 21 47 25 5 0
17 -4 28 -9z m250 0 c10 -6 19 -16 19 -22 0 -9 -3 -9 -12 0 -7 7 -23 12 -36
12 -36 0 -24 -31 18 -45 60 -20 48 -75 -16 -75 -23 0 -37 6 -44 20 -13 24 2
27 20 5 18 -21 55 -15 55 9 0 12 -12 22 -35 30 -40 13 -51 43 -24 63 22 16 29
16 55 3z m270 0 c10 -6 19 -18 19 -27 0 -15 -2 -15 -18 0 -25 22 -49 21 -62
-2 -14 -28 -12 -57 6 -75 21 -21 29 -20 54 6 15 16 20 18 20 7 0 -42 -68 -54
-94 -17 -23 32 -20 65 9 93 27 28 37 30 66 15z m291 -9 c4 -3 10 -18 13 -33 7
-28 7 -28 -44 -28 -52 0 -65 -12 -39 -38 16 -16 34 -15 53 4 20 20 33 11 15
-11 -16 -20 -59 -19 -82 2 -33 29 -19 102 22 116 16 6 50 -1 62 -12z m119 9
c10 -6 19 -16 19 -22 0 -9 -3 -9 -12 0 -7 7 -23 12 -36 12 -36 0 -24 -31 18
-45 60 -20 48 -75 -16 -75 -23 0 -37 6 -44 20 -13 24 -3 26 21 4 20 -18 59
-11 59 10 0 7 -18 20 -40 29 -44 17 -54 48 -22 66 22 13 29 13 53 1z m299 -6
c2 -3 7 -32 10 -65 5 -55 0 -73 -15 -49 -5 8 -11 7 -20 0 -8 -6 -26 -10 -42
-8 -24 3 -28 8 -28 33 0 27 4 31 43 39 30 7 42 15 40 25 -4 20 -48 27 -59 10
-4 -8 -12 -10 -16 -5 -14 13 30 37 57 31 14 -4 27 -9 30 -11z m382 -10 c-18
-12 -22 -25 -22 -65 0 -27 -4 -49 -10 -49 -6 0 -10 29 -10 66 0 51 3 65 13 61
8 -3 20 -1 28 3 23 15 24 0 1 -16z m140 7 c4 -3 10 -18 13 -33 7 -28 7 -28
-44 -28 -52 0 -65 -12 -39 -38 16 -16 34 -15 53 4 20 20 33 11 15 -11 -16 -20
-59 -19 -82 2 -33 29 -19 102 22 116 16 6 50 -1 62 -12z m119 9 c10 -6 19 -16
19 -22 0 -9 -3 -9 -12 0 -14 14 -54 16 -62 3 -7 -11 11 -26 49 -38 56 -18 40
-73 -21 -73 -23 0 -37 6 -44 20 -13 24 -3 26 21 4 20 -18 59 -11 59 10 0 7
-18 20 -40 29 -44 17 -54 48 -22 66 22 13 29 13 53 1z m130 0 c10 -6 19 -16
19 -22 0 -9 -3 -9 -12 0 -14 14 -54 16 -62 3 -7 -11 11 -26 49 -38 56 -18 40
-73 -21 -73 -23 0 -37 6 -44 20 -13 24 -3 26 21 4 20 -18 59 -11 59 10 0 7
-18 20 -40 29 -44 17 -54 48 -22 66 22 13 29 13 53 1z m147 -6 c12 -8 22 -26
22 -40 0 -22 -4 -24 -50 -24 -52 0 -60 -8 -34 -34 20 -20 33 -20 56 1 23 21
35 11 13 -11 -24 -24 -71 -20 -89 6 -23 32 -20 65 9 93 28 29 42 31 73 9z
m137 0 c21 -21 13 -29 -13 -13 -22 14 -56 5 -50 -13 2 -6 20 -17 39 -23 59
-20 50 -74 -12 -75 -28 0 -57 25 -45 38 4 4 12 -1 17 -11 12 -21 42 -22 58 -3
14 16 5 25 -44 41 -35 12 -45 43 -19 62 24 18 49 16 69 -3z m283 0 c27 -19 30
-78 5 -106 -20 -22 -61 -23 -85 -1 -24 22 -24 77 2 103 24 24 48 25 78 4z
m106 -7 c-28 -15 -34 -28 -34 -74 0 -24 -4 -43 -10 -43 -6 0 -10 29 -10 66 0
60 2 65 19 59 11 -3 22 -1 26 5 3 6 11 7 17 4 6 -4 3 -11 -8 -17z m416 3 c11
-11 20 -29 20 -40 0 -17 -7 -20 -50 -20 -52 0 -60 -8 -34 -34 20 -20 33 -20
56 1 23 21 35 11 13 -11 -24 -24 -71 -20 -89 6 -23 32 -20 65 9 93 29 30 49
31 75 5z m856 6 c24 -18 13 -31 -14 -15 -22 14 -56 5 -50 -13 3 -7 18 -16 35
-20 42 -11 57 -31 43 -57 -7 -15 -21 -21 -44 -21 -33 0 -66 24 -52 38 4 4 12
-1 17 -11 12 -21 42 -22 58 -3 14 16 5 25 -44 41 -35 12 -43 36 -20 59 20 20
45 20 71 2z m205 4 c15 -8 19 -21 19 -58 0 -27 5 -53 10 -58 8 -8 -7 -11 -46
-10 -43 1 -59 5 -68 19 -9 15 -7 22 13 38 13 10 34 19 47 19 15 0 24 6 24 15
0 22 -29 30 -52 16 -27 -16 -38 -3 -14 15 23 17 40 18 67 4z m231 -9 c4 -3 10
-18 13 -33 7 -28 7 -28 -44 -28 -52 0 -65 -12 -39 -38 16 -16 34 -15 53 4 20
20 33 11 15 -11 -16 -20 -59 -19 -82 2 -33 29 -19 102 22 116 16 6 50 -1 62
-12z m119 9 c10 -6 19 -16 19 -22 0 -9 -3 -9 -12 0 -14 14 -54 16 -62 3 -7
-11 11 -26 49 -38 56 -18 40 -73 -21 -73 -23 0 -37 6 -44 20 -13 24 -3 26 21
4 20 -18 59 -11 59 10 0 7 -18 20 -40 29 -44 17 -54 48 -22 66 22 13 29 13 53
1z m750 0 c15 -9 19 -22 19 -70 0 -77 -18 -78 -22 -2 -3 53 -5 57 -28 57 -23
0 -25 -4 -28 -57 -4 -80 -22 -73 -22 8 0 40 4 63 10 59 5 -3 18 -1 27 4 22 13
21 13 44 1z m147 -6 c27 -18 31 -84 6 -108 -23 -24 -70 -20 -88 6 -23 32 -20
65 9 93 28 29 42 31 73 9z m208 2 c10 -8 15 -18 11 -22 -4 -5 -12 -3 -16 5
-10 15 -53 11 -58 -6 -3 -7 13 -17 36 -24 44 -13 56 -31 41 -60 -13 -23 -72
-26 -90 -4 -18 22 -5 31 15 11 18 -18 25 -19 49 -10 28 11 17 33 -23 45 -49
15 -60 37 -31 61 27 22 40 22 66 4z m205 4 c15 -8 19 -21 19 -58 0 -27 5 -53
12 -60 9 -9 8 -12 -5 -12 -9 0 -17 5 -17 10 0 7 -6 7 -19 0 -30 -16 -59 -12
-71 10 -8 15 -6 24 10 40 11 11 31 20 43 20 29 0 37 7 30 26 -6 16 -49 19 -58
4 -10 -15 -25 -12 -19 4 5 13 20 21 47 25 5 0 17 -4 28 -9z m237 -18 c6 -9 12
-24 12 -34 0 -15 -8 -18 -50 -18 -52 0 -60 -8 -34 -34 19 -20 25 -20 50 -1 28
21 40 18 19 -5 -39 -43 -105 -14 -105 46 0 61 72 92 108 46z m520 12 c12 -8
22 -26 22 -40 0 -22 -4 -24 -46 -24 -37 0 -45 -3 -42 -16 6 -31 35 -40 57 -19
24 21 40 13 21 -10 -16 -19 -74 -20 -90 0 -21 25 -15 87 10 107 27 22 39 22
68 2z m208 2 c11 -8 15 -18 10 -23 -5 -4 -11 -2 -13 5 -5 14 -49 17 -57 3 -8
-12 13 -28 46 -36 31 -8 45 -39 28 -60 -16 -20 -74 -19 -90 0 -18 22 -5 31 15
11 18 -18 25 -19 49 -10 28 11 17 33 -23 45 -48 14 -57 33 -31 59 24 24 39 25
66 6z m135 4 c15 -8 19 -21 19 -58 0 -27 5 -53 10 -58 8 -8 -7 -11 -46 -10
-43 1 -59 5 -68 19 -9 15 -7 22 13 38 13 10 34 19 47 19 17 0 24 6 24 20 0 23
-38 28 -58 8 -6 -6 -15 -8 -19 -4 -9 9 24 36 45 36 7 0 22 -5 33 -10z m207 -6
c12 -8 22 -26 22 -40 0 -22 -4 -24 -50 -24 -48 0 -50 -1 -40 -21 16 -29 38
-34 60 -14 24 22 37 14 15 -9 -21 -21 -69 -21 -86 0 -22 26 -16 84 10 105 28
23 40 24 69 3z m138 2 c24 -18 13 -31 -14 -15 -22 14 -56 5 -50 -12 2 -7 19
-17 38 -23 30 -9 35 -16 35 -41 0 -27 -3 -30 -36 -33 -35 -3 -70 20 -55 36 4
4 12 -1 17 -11 12 -21 42 -22 58 -3 14 16 5 25 -44 41 -35 12 -43 36 -20 59
20 20 45 20 71 2z m275 4 c15 -8 19 -21 19 -58 0 -27 5 -53 12 -60 9 -9 8 -12
-5 -12 -9 0 -17 5 -17 10 0 7 -6 7 -19 0 -30 -16 -59 -12 -71 10 -13 25 18 60
55 60 18 0 25 5 25 20 0 15 -7 20 -24 20 -14 0 -28 -4 -31 -10 -10 -15 -25
-12 -19 4 5 13 20 21 47 25 5 0 17 -4 28 -9z m-7391 -65 c0 -37 -4 -65 -10
-65 -6 0 -10 28 -10 65 0 37 4 65 10 65 6 0 10 -28 10 -65z m260 0 c0 -37 -4
-65 -10 -65 -6 0 -10 28 -10 65 0 37 4 65 10 65 6 0 10 -28 10 -65z m4249 28
c6 -21 11 -45 11 -53 0 -27 18 10 25 52 9 54 30 47 47 -14 l14 -53 14 53 c8
28 18 52 23 52 5 0 7 -6 4 -12 -2 -7 -10 -37 -17 -65 -16 -62 -36 -69 -45 -15
-11 65 -21 69 -35 13 -14 -61 -30 -61 -47 -1 -7 23 -15 51 -18 61 -4 11 -2 19
4 19 5 0 15 -17 20 -37z m191 -28 c0 -37 -4 -65 -10 -65 -6 0 -10 28 -10 65 0
37 4 65 10 65 6 0 10 -28 10 -65z m1269 28 c6 -21 11 -45 11 -53 0 -27 18 10
25 52 9 54 30 47 47 -14 l14 -53 13 53 c7 28 18 52 23 52 6 0 8 -6 5 -12 -2
-7 -10 -37 -17 -65 -16 -62 -36 -69 -45 -15 -11 65 -21 69 -36 13 -7 -28 -18
-50 -23 -48 -6 2 -16 23 -23 47 -7 23 -15 51 -18 61 -4 11 -2 19 4 19 5 0 15
-17 20 -37z m191 -28 c0 -37 -4 -65 -10 -65 -6 0 -10 28 -10 65 0 37 4 65 10
65 6 0 10 -28 10 -65z m1324 43 l16 -22 16 22 c21 30 40 28 20 -3 -21 -32 -20
-41 5 -76 15 -22 17 -29 6 -29 -7 0 -20 11 -27 25 -7 14 -16 25 -20 25 -4 0
-13 -11 -20 -25 -7 -14 -20 -25 -27 -25 -11 0 -9 7 6 29 25 35 26 44 5 76 -20
31 -1 33 20 3z m126 -93 c0 -8 -4 -15 -10 -15 -5 0 -10 7 -10 15 0 8 5 15 10
15 6 0 10 -7 10 -15z m-7530 -982 c16 -21 20 -37 16 -62 -8 -52 -31 -71 -88
-71 l-48 0 0 80 0 80 49 0 c42 0 53 -4 71 -27z m190 -53 c0 -64 -3 -80 -15
-80 -12 0 -15 16 -15 80 0 64 3 80 15 80 12 0 15 -16 15 -80z m1943 30 c9 -48
27 -77 27 -44 0 10 5 36 11 57 8 30 15 37 34 37 24 0 25 -2 25 -80 0 -63 -3
-80 -15 -80 -10 0 -15 15 -17 58 l-3 57 -14 -57 c-18 -73 -43 -80 -58 -15
l-11 42 -1 -42 c-1 -36 -4 -43 -21 -43 -18 0 -20 7 -20 81 l0 80 27 -3 c24 -3
29 -9 36 -48z m2093 -2 l29 -53 3 53 c2 37 7 52 18 52 11 0 14 -17 14 -80 0
-70 -2 -80 -17 -80 -11 0 -30 21 -48 53 l-30 52 -3 -52 c-2 -38 -7 -53 -18
-53 -11 0 -14 17 -14 80 0 71 2 80 18 80 12 0 29 -19 48 -52z m484 22 c0 -27
3 -30 30 -30 27 0 30 3 30 30 0 20 5 30 15 30 12 0 15 -16 15 -80 0 -64 -3
-80 -15 -80 -10 0 -15 11 -15 35 0 32 -2 35 -30 35 -28 0 -30 -3 -30 -35 0
-28 -4 -35 -20 -35 -18 0 -20 7 -20 73 0 76 4 87 27 87 8 0 13 -12 13 -30z
m730 6 c0 -19 4 -23 20 -19 33 9 50 -14 50 -68 0 -37 -4 -49 -15 -49 -11 0
-15 12 -15 45 0 38 -3 45 -20 45 -17 0 -20 -7 -20 -45 0 -33 -4 -45 -15 -45
-12 0 -15 16 -15 80 0 64 3 80 15 80 9 0 15 -9 15 -24z m130 9 c0 -8 -7 -15
-15 -15 -8 0 -15 7 -15 15 0 8 7 15 15 15 8 0 15 -7 15 -15z m1510 -5 c24 -24
27 -86 4 -118 -20 -29 -85 -31 -114 -2 -27 27 -27 89 0 118 27 29 83 29 110 2z
m1927 -42 c12 -35 25 -71 28 -80 6 -14 2 -18 -14 -18 -12 0 -21 6 -21 15 0 10
-11 15 -35 15 -24 0 -35 -5 -35 -15 0 -8 -9 -15 -19 -15 -20 0 -20 1 -2 53 34
96 40 107 58 107 13 0 24 -17 40 -62z m83 -18 c0 -64 -3 -80 -15 -80 -12 0
-15 16 -15 80 0 64 3 80 15 80 12 0 15 -16 15 -80z m300 38 l0 -41 23 21 c13
12 32 22 42 22 17 0 17 -2 -4 -24 l-22 -23 22 -37 c20 -35 20 -36 2 -36 -11 0
-26 11 -33 25 -14 27 -30 24 -30 -6 0 -10 -7 -19 -15 -19 -12 0 -15 16 -15 80
0 64 3 80 15 80 11 0 15 -11 15 -42z m-6830 17 c0 -8 5 -15 10 -15 6 0 10 -7
10 -15 0 -8 -4 -15 -10 -15 -5 0 -10 -16 -10 -35 0 -19 5 -35 10 -35 6 0 10
-5 10 -11 0 -6 -10 -9 -22 -7 -19 2 -24 10 -26 46 -2 23 -7 42 -13 42 -5 0 -9
7 -9 15 0 8 5 15 10 15 6 0 10 7 10 15 0 8 7 15 15 15 8 0 15 -7 15 -15z
m-2436 -31 c9 -8 16 -24 16 -34 0 -15 -9 -20 -40 -22 -32 -2 -38 -6 -30 -18 8
-13 13 -13 30 -2 26 16 46 6 29 -14 -15 -19 -64 -18 -83 2 -9 8 -16 27 -16 41
0 53 59 82 94 47z m184 4 c7 -7 12 -33 12 -59 l0 -48 -47 2 c-44 2 -48 4 -51
30 -3 23 1 28 28 33 17 4 33 11 37 17 4 6 -7 7 -31 3 -20 -4 -36 -3 -36 2 0
16 24 32 50 32 14 0 31 -5 38 -12z m67 -25 l8 -38 10 38 c11 45 40 48 45 4 4
-36 18 -34 26 3 3 18 12 30 21 30 11 0 15 -6 11 -17 -2 -10 -10 -37 -17 -60
-16 -56 -44 -59 -54 -5 l-8 37 -10 -37 c-13 -54 -39 -51 -55 7 -16 59 -15 75
2 75 8 0 17 -16 21 -37z m221 29 c7 -4 13 -30 15 -59 l4 -52 -50 2 c-39 2 -51
6 -53 20 -5 25 16 47 44 47 13 0 24 5 24 11 0 7 -12 9 -35 5 -39 -8 -42 -5
-19 18 16 17 51 21 70 8z m114 -7 c0 -7 -9 -15 -20 -18 -16 -4 -20 -14 -20
-46 0 -30 -4 -41 -15 -41 -12 0 -15 13 -15 59 l0 59 35 0 c22 0 35 -5 35 -13z
m104 -7 c26 -37 20 -48 -24 -48 -22 0 -40 -5 -40 -10 0 -16 30 -24 43 -11 15
15 27 14 27 -3 0 -26 -66 -36 -88 -14 -19 19 -15 85 6 97 28 17 60 12 76 -11z
m1546 -10 c13 -25 13 -31 0 -55 -12 -21 -25 -29 -50 -31 -39 -4 -60 16 -60 57
0 62 79 83 110 29z m130 12 c5 -10 10 -37 10 -59 0 -34 -3 -41 -20 -41 -17 0
-20 7 -20 46 0 38 -3 45 -17 42 -13 -2 -19 -15 -21 -46 -2 -28 -8 -42 -18 -42
-11 0 -14 14 -14 59 l0 58 45 1 c34 1 47 -3 55 -18z m186 12 c7 -4 13 -30 15
-59 l4 -52 -50 2 c-39 2 -51 6 -53 20 -5 25 16 47 44 47 13 0 24 5 24 10 0 7
-13 8 -35 4 -39 -7 -43 -3 -19 20 16 17 51 21 70 8z m144 -12 c5 -10 10 -37
10 -59 0 -34 -3 -41 -20 -41 -17 0 -20 7 -20 46 0 38 -3 45 -17 42 -13 -2 -19
-15 -21 -46 -2 -28 -8 -42 -18 -42 -11 0 -14 14 -14 59 l0 58 45 1 c34 1 47
-3 55 -18z m118 8 c7 -7 12 -33 12 -59 l0 -48 -47 2 c-44 2 -48 4 -51 30 -3
23 1 28 28 33 17 4 33 11 37 17 4 6 -7 7 -31 3 -20 -4 -36 -3 -36 2 0 16 24
32 50 32 14 0 31 -5 38 -12z m1464 -5 c10 -9 18 -24 18 -35 0 -14 -8 -18 -40
-18 -22 0 -40 -5 -40 -10 0 -17 29 -23 45 -10 19 16 40 3 24 -16 -14 -17 -71
-18 -87 -2 -17 17 -15 68 5 90 20 22 51 23 75 1z m64 -10 c10 -48 11 -49 21
-13 13 49 38 51 49 3 l8 -38 10 38 c5 20 15 37 23 37 16 0 16 -13 -1 -70 -16
-55 -43 -66 -52 -21 -8 38 -22 40 -26 4 -2 -17 -10 -29 -20 -31 -13 -2 -21 10
-32 49 -20 65 -20 69 -1 69 8 0 17 -12 21 -27z m452 15 c7 -7 12 -33 12 -59
l0 -46 -49 -1 c-35 -1 -51 3 -55 13 -9 25 5 46 35 52 16 3 29 10 29 15 0 5
-13 7 -30 3 -16 -4 -30 -3 -30 2 0 17 24 33 50 33 14 0 31 -5 38 -12z m190 0
c18 -15 16 -108 -3 -108 -11 0 -15 12 -15 46 0 38 -3 45 -17 42 -13 -2 -19
-15 -21 -46 -2 -28 -8 -42 -18 -42 -10 0 -14 13 -14 46 0 38 -3 45 -17 42 -13
-2 -19 -15 -21 -46 -2 -28 -8 -42 -18 -42 -10 0 -14 14 -14 53 0 30 2 56 5 58
9 10 140 6 153 -3z m137 -4 c19 -20 19 -78 0 -94 -8 -7 -26 -10 -40 -8 -22 5
-25 2 -25 -23 0 -19 -5 -29 -15 -29 -12 0 -15 16 -15 84 l0 84 40 0 c23 1 46
-6 55 -14z m125 1 c18 -21 3 -32 -22 -16 -13 8 -24 9 -30 3 -6 -6 3 -14 27
-22 31 -10 36 -16 33 -38 -3 -25 -7 -27 -48 -27 -35 0 -45 4 -48 18 -2 10 3
17 12 17 9 0 16 -4 16 -10 0 -5 9 -10 20 -10 31 0 24 15 -15 29 -36 13 -45 37
-23 59 17 17 63 15 78 -3z m200 -45 c0 -47 -3 -60 -15 -60 -12 0 -15 13 -15
60 0 47 3 60 15 60 12 0 15 -13 15 -60z m60 48 c0 -9 3 -9 12 0 16 16 28 15
28 -3 0 -8 -6 -15 -14 -15 -17 0 -26 -22 -26 -61 0 -19 -5 -29 -15 -29 -12 0
-15 13 -15 60 0 47 3 60 15 60 8 0 15 -5 15 -12z m142 -5 c10 -9 18 -24 18
-35 0 -14 -8 -18 -40 -18 -22 0 -40 -5 -40 -10 0 -17 29 -23 45 -10 18 15 30
7 22 -15 -8 -18 -67 -21 -85 -3 -17 17 -15 74 4 92 20 21 53 20 76 -1z m1418
1 c0 -6 -7 -14 -15 -18 -10 -3 -15 -19 -15 -46 0 -33 -3 -40 -20 -40 -17 0
-20 7 -20 53 0 30 2 56 5 59 11 10 65 4 65 -8z m104 0 c9 -8 16 -24 16 -34 0
-15 -9 -20 -40 -22 -32 -2 -38 -6 -30 -18 8 -13 13 -13 30 -2 26 16 46 6 29
-14 -15 -19 -64 -18 -83 2 -9 8 -16 27 -16 41 0 53 59 82 94 47z m146 -55 c0
-63 -2 -70 -26 -85 -19 -13 -32 -15 -51 -8 -42 15 -40 34 3 31 20 -1 39 3 41
9 2 6 -7 9 -25 6 -35 -5 -55 17 -54 59 1 44 17 57 67 57 l45 -1 0 -68z m124
49 c33 -47 7 -98 -50 -98 -36 0 -54 21 -54 61 0 54 74 80 104 37z m134 10 c18
-15 16 -108 -2 -108 -10 0 -16 14 -18 43 -2 34 -7 42 -23 42 -16 0 -21 -8 -23
-42 -2 -29 -8 -43 -18 -43 -11 0 -14 14 -14 59 l0 58 43 0 c23 1 48 -4 55 -9z
m1501 3 c7 -5 16 -31 19 -59 l4 -50 -53 2 c-43 1 -54 5 -57 19 -5 25 16 47 44
47 13 0 24 5 24 11 0 7 -11 8 -30 4 -23 -5 -30 -3 -30 8 0 25 51 36 79 18z
m131 -6 c18 -21 4 -32 -21 -17 -11 7 -25 10 -31 6 -7 -4 3 -14 23 -23 25 -12
34 -23 34 -41 0 -23 -4 -25 -45 -25 -35 0 -45 4 -48 18 -2 10 3 17 12 17 9 0
16 -4 16 -10 0 -5 9 -10 20 -10 31 0 24 16 -12 26 -35 10 -47 36 -28 59 16 20
64 19 80 0z m236 7 c7 -4 13 -30 15 -59 l4 -52 -50 2 c-39 2 -51 6 -53 20 -5
23 15 47 39 47 10 0 21 5 25 11 5 9 -4 10 -30 5 -35 -7 -37 -6 -26 13 11 21
53 28 76 13z"/>
<path d="M5507 4290 c-23 -61 -58 -182 -54 -186 2 -3 32 -4 64 -2 l60 3 -32
100 c-18 55 -35 93 -38 85z"/>
<path d="M5952 4203 c-43 -17 -58 -150 -21 -197 16 -20 29 -26 60 -26 66 0 96
48 86 136 -8 74 -63 112 -125 87z"/>
<path d="M6402 4203 c-42 -17 -56 -135 -22 -190 18 -29 25 -33 65 -33 40 0 47
4 65 33 35 57 20 173 -25 191 -19 7 -64 7 -83 -1z"/>
<path d="M2635 4073 c-64 -19 -75 -29 -75 -64 0 -40 36 -57 79 -39 17 7 34 17
40 24 12 15 25 96 14 95 -4 -1 -30 -8 -58 -16z"/>
<path d="M4395 4195 c-45 -44 -34 -55 50 -55 61 0 75 3 75 15 0 25 -47 65 -75
65 -14 0 -37 -11 -50 -25z"/>
<path d="M4805 4195 c-45 -44 -34 -55 50 -55 67 0 75 2 75 19 0 25 -46 61 -77
61 -13 0 -35 -11 -48 -25z"/>
<path d="M7128 4200 c-14 -11 -28 -29 -31 -40 -5 -19 -1 -20 74 -20 89 0 99
11 54 55 -29 30 -64 32 -97 5z"/>
<path d="M1521 3354 c-12 -15 -21 -35 -21 -45 0 -17 9 -19 80 -19 74 0 80 2
80 20 0 12 -11 32 -25 45 -34 35 -86 34 -114 -1z"/>
<path d="M2402 3373 c-13 -5 -42 -55 -42 -73 0 -6 31 -10 80 -10 77 0 80 1 80
23 0 47 -67 81 -118 60z"/>
<path d="M3135 3235 c-70 -20 -96 -63 -59 -99 43 -43 121 0 131 72 6 48 6 48
-72 27z"/>
<path d="M3761 3356 c-47 -50 -45 -161 4 -203 56 -49 138 -10 150 71 9 54 -9
121 -38 141 -34 23 -89 19 -116 -9z"/>
<path d="M850 2474 c0 -35 0 -35 41 -32 79 6 76 68 -2 68 -38 0 -39 -1 -39
-36z"/>
<path d="M2682 2451 c-19 -12 -18 -69 2 -89 23 -23 50 -5 54 37 5 48 -22 74
-56 52z"/>
<path d="M7592 2448 c-21 -21 -15 -76 10 -89 18 -10 24 -8 40 11 21 25 22 43
8 71 -12 21 -40 25 -58 7z"/>
<path d="M1032 2448 c-21 -21 -13 -28 28 -28 22 0 40 4 40 8 0 14 -23 32 -40
32 -9 0 -21 -5 -28 -12z"/>
<path d="M1195 2403 c-26 -7 -36 -24 -23 -40 15 -18 32 -16 51 5 31 35 21 47
-28 35z"/>
<path d="M1972 2448 c-21 -21 -13 -28 28 -28 22 0 40 4 40 8 0 14 -23 32 -40
32 -9 0 -21 -5 -28 -12z"/>
<path d="M2403 2400 c-26 -10 -31 -38 -9 -46 22 -8 56 14 56 36 0 22 -12 24
-47 10z"/>
<path d="M2912 2448 c-21 -21 -13 -28 28 -28 22 0 40 4 40 8 0 14 -23 32 -40
32 -9 0 -21 -5 -28 -12z"/>
<path d="M3310 2440 c-10 -19 -8 -20 31 -20 33 0 40 3 35 16 -3 9 -6 18 -6 20
0 14 -51 1 -60 -16z"/>
<path d="M3732 2448 c-17 -17 -15 -64 4 -82 31 -32 64 -11 64 39 0 34 -15 55
-40 55 -9 0 -21 -5 -28 -12z"/>
<path d="M4250 2440 c-10 -18 -8 -20 30 -20 41 0 49 7 28 28 -18 18 -46 14
-58 -8z"/>
<path d="M5341 2401 c-30 -8 -37 -24 -17 -40 20 -17 56 3 56 29 0 21 -2 22
-39 11z"/>
<path d="M5542 2448 c-21 -21 -13 -28 28 -28 22 0 40 4 40 8 0 14 -23 32 -40
32 -9 0 -21 -5 -28 -12z"/>
<path d="M6559 2436 c-15 -32 -4 -73 22 -81 32 -10 50 13 47 59 -3 36 -6 41
-30 44 -22 3 -30 -2 -39 -22z"/>
<path d="M7005 2403 c-11 -3 -23 -10 -27 -16 -8 -14 9 -37 28 -37 16 0 45 40
38 52 -5 8 -8 9 -39 1z"/>
<path d="M7202 2448 c-21 -21 -13 -28 28 -28 22 0 40 4 40 8 0 14 -23 32 -40
32 -9 0 -21 -5 -28 -12z"/>
<path d="M7737 2454 c-18 -19 -5 -34 29 -34 28 0 35 3 32 18 -3 17 -48 29 -61
16z"/>
<path d="M8101 2401 c-30 -8 -37 -24 -17 -40 20 -17 56 3 56 29 0 21 -2 22
-39 11z"/>
<path d="M8287 2454 c-18 -19 -5 -34 29 -34 28 0 35 3 32 18 -3 17 -48 29 -61
16z"/>
<path d="M8723 2403 c-27 -5 -36 -28 -18 -43 19 -16 55 4 55 30 0 11 -3 19 -7
19 -5 -1 -18 -4 -30 -6z"/>
<path d="M1370 1320 c0 -50 1 -51 28 -48 25 3 27 6 27 48 0 42 -2 45 -27 48
-27 3 -28 2 -28 -48z"/>
<path d="M8440 1349 c-15 -27 -5 -66 20 -79 15 -8 24 -6 40 10 22 22 25 42 10
71 -14 26 -56 25 -70 -2z"/>
<path d="M10406 1335 c-10 -26 -7 -35 9 -35 17 0 19 18 6 38 -7 11 -10 10 -15
-3z"/>
<path d="M1515 1320 c-4 -6 5 -10 20 -10 15 0 24 4 20 10 -3 6 -12 10 -20 10
-8 0 -17 -4 -20 -10z"/>
<path d="M1700 1274 c0 -9 7 -14 17 -12 25 5 28 28 4 28 -12 0 -21 -6 -21 -16z"/>
<path d="M1995 1279 c-4 -6 -4 -13 -1 -16 8 -8 36 5 36 17 0 13 -27 13 -35 -1z"/>
<path d="M2200 1320 c0 -5 9 -10 20 -10 11 0 20 5 20 10 0 6 -9 10 -20 10 -11
0 -20 -4 -20 -10z"/>
<path d="M3733 1314 c-8 -20 9 -49 28 -49 8 0 15 13 17 33 3 27 0 32 -18 32
-11 0 -23 -7 -27 -16z"/>
<path d="M4075 1279 c-4 -6 -4 -13 -1 -16 8 -8 36 5 36 17 0 13 -27 13 -35 -1z"/>
<path d="M4330 1274 c0 -9 7 -14 17 -12 25 5 28 28 4 28 -12 0 -21 -6 -21 -16z"/>
<path d="M5795 1320 c-4 -6 5 -10 20 -10 15 0 24 4 20 10 -3 6 -12 10 -20 10
-8 0 -17 -4 -20 -10z"/>
<path d="M6310 1275 c0 -8 6 -15 14 -15 8 0 16 7 20 15 4 10 -1 15 -14 15 -11
0 -20 -7 -20 -15z"/>
<path d="M6637 1324 c-11 -11 -8 -52 3 -59 17 -10 41 16 38 39 -3 21 -28 33
-41 20z"/>
<path d="M7165 1320 c-4 -6 5 -10 20 -10 15 0 24 4 20 10 -3 6 -12 10 -20 10
-8 0 -17 -4 -20 -10z"/>
<path d="M8685 1320 c-4 -6 5 -10 20 -10 15 0 24 4 20 10 -3 6 -12 10 -20 10
-8 0 -17 -4 -20 -10z"/>
<path d="M8810 1300 c0 -27 3 -31 23 -28 16 2 22 10 22 28 0 18 -6 26 -22 28
-20 3 -23 -1 -23 -28z"/>
<path d="M8943 1314 c-7 -18 6 -45 25 -52 15 -5 33 33 26 52 -8 21 -43 21 -51
0z"/>
<path d="M10595 1281 c-3 -5 -1 -12 5 -16 12 -7 30 2 30 16 0 12 -27 12 -35 0z"/>
<path d="M10965 1279 c-4 -6 -4 -13 -1 -16 8 -8 36 5 36 17 0 13 -27 13 -35
-1z"/>
</g>
</svg>
